# This file uses centimeters as units for non-parametric coordinates.

mtllib Log_Cut.mtl
g default
v 7.912075 0.104241 6.804372
v 6.717080 0.104241 6.537981
v 5.906747 0.104241 5.620194
v 5.955755 0.104241 4.588637
v 6.835399 0.104241 4.047583
v 8.030393 0.104241 4.313972
v 8.840727 0.104241 5.231760
v 8.791716 0.104241 6.263316
v 7.373737 0.104241 5.425977
v 9.191817 -0.412878 7.296802
v 8.920770 -0.412878 6.602802
v 9.634703 -0.412878 7.024391
v 10.017893 -0.690073 7.709731
v 9.822874 -0.690073 7.210391
v 10.336555 -0.690073 7.513727
v 7.878503 -0.993827 3.006786
v 8.285461 -1.196592 3.882030
v 8.751260 -0.674110 3.093230
v 9.248412 -0.993827 3.815738
v 9.127369 -1.537324 1.878602
v 9.277653 -1.612203 2.201818
v 9.422837 -1.506307 1.955959
v 9.633258 -1.537324 2.177337
v 6.107086 -0.732358 7.378983
v 6.458342 -1.110528 6.647666
v 5.446721 -0.800697 6.717723
v 4.920623 -1.458425 8.489038
v 5.042950 -1.590127 8.234352
v 4.690646 -1.482225 8.258750
v 8.088447 3.761974 6.767815
v 8.401733 3.761974 6.106007
v 8.005619 3.761974 5.212424
v 7.298512 3.761974 4.919531
v 6.449176 3.761974 5.064715
v 6.072199 3.761974 5.919530
v 6.448986 3.761974 6.703502
v 7.298512 3.761974 6.882385
v 6.556995 3.761974 5.177042
v 7.294004 3.761974 5.078385
v 8.247386 3.761974 6.076384
v 7.962598 3.761974 6.654289
v 6.556805 3.761974 6.591175
v 6.226546 3.761974 5.919530
v 7.294004 3.761974 6.723531
v 7.888784 3.761974 5.324750
v 6.699224 3.466031 5.324751
v 7.294004 3.466031 5.899636
v 7.294004 3.466031 5.078385
v 8.087416 3.466031 6.076384
v 7.936519 3.466031 6.520659
v 6.699224 3.466031 6.514310
v 6.452859 3.466031 5.919530
v 7.294004 3.466031 6.760676
v 7.888784 3.466031 5.324750
vt 0.001869 0.998008
vt 0.001869 0.915314
vt 0.064083 0.852774
vt 0.092205 0.907158
vt 0.118076 0.770225
vt 0.127870 0.789165
vt 0.818113 0.399817
vt 0.884564 0.399817
vt 0.896262 0.671823
vt 0.819551 0.671823
vt 0.933779 0.399817
vt 0.936497 0.671823
vt 0.796332 0.399817
vt 0.751300 0.671823
vt 0.714249 0.753480
vt 0.660520 0.729704
vt 0.592410 0.793897
vt 0.575948 0.791590
vt 0.372684 0.497319
vt 0.430984 0.497319
vt 0.529955 0.769325
vt 0.453244 0.769325
vt 0.494552 0.497319
vt 0.570190 0.769325
vt 0.359382 0.497319
vt 0.384993 0.769325
vt 0.700666 0.896513
vt 0.700666 0.853537
vt 0.722674 0.853537
vt 0.722674 0.886575
vt 0.700666 0.797642
vt 0.722674 0.797642
vt 0.076056 0.717647
vt 0.178560 0.677614
vt 0.158750 0.766479
vt 0.163570 0.602603
vt 0.215179 0.582447
vt 0.208753 0.535519
vt 0.245887 0.521016
vt 0.231311 0.497319
vt 0.028068 0.474634
vt 0.018971 0.493574
vt 0.001869 0.476448
vt 0.058094 0.361851
vt 0.133323 0.356641
vt 0.092304 0.280234
vt 0.201396 0.265791
vt 0.095948 0.203522
vt 0.161363 0.163287
vt 0.238933 0.085889
vt 0.269196 0.150976
vt 0.331804 0.001992
vt 0.342980 0.026028
vt 0.310488 0.251348
vt 0.340805 0.146046
vt 0.353776 0.007745
vt 0.369424 0.024207
vt 0.306843 0.328059
vt 0.464407 0.887951
vt 0.424172 0.953365
vt 0.387553 0.858198
vt 0.407810 0.825263
vt 0.356845 0.796767
vt 0.371421 0.773070
vt 0.350261 0.918159
vt 0.290001 0.986410
vt 0.255791 0.904793
vt 0.304899 0.855619
vt 0.199566 0.790195
vt 0.216668 0.773070
vt 0.577546 0.924248
vt 0.534795 0.880018
vt 0.595867 0.880018
vt 0.533315 0.942569
vt 0.577546 0.835787
vt 0.489085 0.924248
vt 0.588530 0.934825
vt 0.533315 0.959399
vt 0.521651 0.821016
vt 0.470764 0.880018
vt 0.483369 0.934839
vt 0.596883 0.942843
vt 0.533315 0.970877
vt 0.488613 0.832238
vt 0.475016 0.942857
vt 0.607680 0.879683
vt 0.595867 0.880018
vt 0.585899 0.827099
vt 0.577546 0.835787
vt 0.519448 0.797642
vt 0.521651 0.809120
vt 0.470233 0.820940
vt 0.478675 0.830298
vt 0.614711 0.856386
vt 0.623231 0.797642
vt 0.631673 0.807001
vt 0.626524 0.856721
vt 0.628013 0.919560
vt 0.636366 0.911542
vt 0.133728 0.990553
vt 0.133728 0.885106
vt 0.172183 0.822418
vt 0.172183 0.875509
vt 0.192797 0.770225
vt 0.192797 0.808425
vt 0.376963 0.001992
vt 0.440123 0.001992
vt 0.494549 0.273998
vt 0.405684 0.273998
vt 0.548156 0.331879
vt 0.483254 0.355655
vt 0.598097 0.393765
vt 0.576125 0.396072
vt 0.353625 0.769325
vt 0.294882 0.769325
vt 0.251644 0.497319
vt 0.340509 0.497319
vt 0.693412 0.841873
vt 0.693412 0.896680
vt 0.671405 0.886103
vt 0.671405 0.841873
vt 0.693412 0.797642
vt 0.671405 0.797642
vt 0.642143 0.847362
vt 0.642143 0.797642
vt 0.664151 0.799582
vt 0.664151 0.847362
vt 0.642143 0.902183
vt 0.664151 0.891592
vn 0.000000 -1.000000 -0.000001
vn 0.000000 -1.000000 -0.000001
vn 0.000000 -1.000000 -0.000001
vn -0.252801 -0.903597 0.345837
vn -0.252801 -0.903597 0.345837
vn -0.252801 -0.903597 0.345837
vn 0.000000 -1.000000 -0.000002
vn 0.000000 -1.000000 -0.000003
vn 0.000000 -1.000000 -0.000002
vn 0.000000 -1.000000 -0.000001
vn 0.176816 -0.937592 -0.299428
vn 0.176818 -0.937591 -0.299430
vn 0.176816 -0.937592 -0.299428
vn 0.176813 -0.937593 -0.299427
vn 0.000000 -1.000000 0.000000
vn 0.000000 -1.000000 0.000000
vn 0.000000 -1.000000 0.000000
vn 0.000000 -1.000000 0.000005
vn 0.000000 -1.000000 0.000005
vn 0.000000 -1.000000 0.000005
vn -0.423543 -0.890645 0.165416
vn -0.423543 -0.890645 0.165416
vn -0.423543 -0.890645 0.165416
vn -0.423543 -0.890645 0.165416
vn 0.465693 -0.401506 -0.788621
vn 0.465693 -0.401505 -0.788621
vn 0.486396 -0.291491 -0.823682
vn 0.466640 -0.397232 -0.790224
vn 0.224579 0.903467 0.365118
vn 0.224579 0.903467 0.365118
vn 0.224579 0.903467 0.365118
vn 0.224579 0.903467 0.365118
vn -0.380569 -0.912730 0.148635
vn -0.380569 -0.912730 0.148635
vn -0.380569 -0.912730 0.148635
vn -0.380569 -0.912730 0.148635
vn 0.495254 -0.226564 -0.838685
vn 0.495254 -0.226564 -0.838685
vn 0.174541 0.942874 0.283768
vn 0.174541 0.942874 0.283768
vn 0.174541 0.942874 0.283768
vn 0.174541 0.942874 0.283768
vn -0.641064 -0.740350 0.202284
vn -0.641064 -0.740350 0.202284
vn -0.561537 -0.818921 0.118513
vn -0.598182 -0.786035 0.155970
vn -0.008819 0.766172 -0.642576
vn -0.008819 0.766172 -0.642576
vn -0.066313 0.775114 -0.628331
vn -0.042545 0.771750 -0.634501
vn 0.566947 0.766171 -0.302578
vn 0.566947 0.766171 -0.302578
vn 0.576162 0.771750 -0.269145
vn 0.582237 0.775114 -0.245352
vn 0.132433 -0.740350 0.659048
vn 0.132433 -0.740350 0.659048
vn 0.152282 -0.786035 0.599132
vn 0.167387 -0.818920 0.548954
vn -0.413199 -0.910447 -0.018794
vn -0.413199 -0.910447 -0.018794
vn -0.150562 0.783217 -0.603243
vn -0.150562 0.783217 -0.603243
vn 0.600950 0.783219 -0.159461
vn 0.600950 0.783219 -0.159461
vn 0.215993 -0.910446 0.352752
vn 0.215994 -0.910447 0.352752
vn 0.856889 -0.137656 0.496782
vn 0.856889 -0.137656 0.496782
vn 0.801569 -0.272543 0.532173
vn 0.840716 -0.182653 0.509739
vn -0.486414 0.766229 0.419876
vn -0.486414 0.766229 0.419876
vn -0.437109 0.824180 0.360086
vn -0.424318 0.837290 0.344819
vn -0.161240 -0.679000 -0.716213
vn -0.161240 -0.679000 -0.716213
vn -0.191711 -0.716666 -0.670550
vn -0.220463 -0.750175 -0.623405
vn 0.745285 -0.374506 0.551629
vn 0.745285 -0.374506 0.551629
vn -0.333999 0.911683 0.239329
vn -0.333999 0.911684 0.239329
vn -0.284958 -0.817085 -0.501170
vn -0.284958 -0.817085 -0.501170
vn 0.709483 0.039363 0.703623
vn 0.709483 0.039363 0.703623
vn 0.709483 0.039363 0.703623
vn 0.709483 0.039363 0.703623
vn 0.971692 0.158495 -0.175196
vn 0.971692 0.158495 -0.175196
vn 0.971692 0.158495 -0.175196
vn 0.971692 0.158495 -0.175196
vn 0.611995 0.192559 -0.767061
vn 0.611995 0.192559 -0.767061
vn 0.611995 0.192559 -0.767061
vn 0.611995 0.192559 -0.767061
vn 0.057672 0.224586 -0.972746
vn 0.057672 0.224586 -0.972746
vn 0.057672 0.224586 -0.972746
vn 0.057672 0.224586 -0.972746
vn -0.730496 0.184137 -0.657624
vn -0.730496 0.184137 -0.657624
vn -0.730496 0.184137 -0.657624
vn -0.730496 0.184137 -0.657624
vn -0.983648 0.029960 0.177590
vn -0.983648 0.029960 0.177590
vn -0.983648 0.029960 0.177590
vn -0.983648 0.029960 0.177590
vn -0.549574 -0.077922 0.831803
vn -0.549574 -0.077922 0.831804
vn -0.549574 -0.077922 0.831803
vn -0.549574 -0.077922 0.831803
vn -0.076219 -0.034039 0.996510
vn -0.076219 -0.034039 0.996510
vn -0.076219 -0.034039 0.996510
vn -0.076219 -0.034039 0.996510
vn 0.000000 1.000000 0.000001
vn 0.000000 1.000000 0.000000
vn 0.000000 1.000000 -0.000000
vn 0.000000 1.000000 -0.000000
vn 0.000000 1.000000 -0.000002
vn 0.000000 1.000000 -0.000001
vn 0.000000 1.000000 -0.000000
vn 0.000000 1.000000 -0.000000
vn 0.000000 1.000000 0.000002
vn 0.000000 1.000000 0.000004
vn 0.000000 1.000000 0.000004
vn 0.000000 1.000000 0.000004
vn 0.000000 1.000000 0.000004
vn 0.000000 1.000000 0.000004
vn 0.000000 1.000000 0.000004
vn 0.000000 1.000000 0.000004
vn 0.000000 1.000000 0.000004
vn 0.000000 1.000000 -0.000000
vn 0.000000 1.000000 -0.000000
vn 0.000000 1.000000 -0.000000
vn 0.000000 1.000000 -0.000000
vn 0.000000 1.000000 0.000004
vn 0.000000 1.000000 0.000004
vn 0.000000 1.000000 0.000004
vn 0.000000 1.000000 0.000004
vn 0.000000 1.000000 -0.000000
vn 0.000000 1.000000 -0.000000
vn 0.000000 1.000000 -0.000000
vn 0.000000 1.000000 -0.000000
vn 0.000000 1.000000 -0.000000
vn 0.000000 1.000000 -0.000000
vn 0.000000 1.000000 -0.000000
vn 0.000000 1.000000 -0.000000
vn 0.000000 1.000000 0.000004
vn 0.000000 1.000000 0.000004
vn 0.000000 1.000000 0.000004
vn 0.000000 1.000000 0.000004
vn 0.000000 1.000000 -0.000002
vn 0.000000 1.000000 -0.000002
vn 0.000000 1.000000 -0.000002
vn 0.000000 1.000000 -0.000002
vn 0.240090 0.288968 0.926744
vn 0.240090 0.288968 0.926744
vn 0.240090 0.288968 0.926744
vn 0.240090 0.288968 0.926744
vn -0.860588 0.353326 -0.366810
vn -0.860588 0.353326 -0.366810
vn -0.860588 0.353326 -0.366810
vn -0.860588 0.353326 -0.366810
vn 0.773225 0.527423 -0.352063
vn 0.773225 0.527422 -0.352063
vn 0.773225 0.527423 -0.352063
vn 0.773225 0.527423 -0.352063
vn -0.226376 0.166421 -0.959718
vn -0.226376 0.166421 -0.959718
vn -0.226376 0.166421 -0.959718
vn -0.226376 0.166421 -0.959718
vn -0.382684 0.000000 0.923879
vn -0.382684 0.000000 0.923879
vn -0.382684 0.000000 0.923879
vn -0.382684 0.000000 0.923879
vn 0.762628 0.556947 0.328950
vn 0.762628 0.556947 0.328950
vn 0.762628 0.556947 0.328950
vn 0.762628 0.556947 0.328950
vn 0.271196 0.129261 -0.953805
vn 0.271196 0.129261 -0.953805
vn 0.271196 0.129261 -0.953805
vn 0.271196 0.129261 -0.953805
vn -0.908921 0.245656 0.336920
vn -0.908921 0.245656 0.336920
vn -0.908921 0.245656 0.336920
vn -0.908921 0.245656 0.336920
s off
g pCylinder2
usemtl initialShadingGroup
f 9/33/1 1/34/2 2/35/3
f 28/41/4 27/42/5 29/43/6
s 1
f 9/47/7 3/46/8 4/48/9
f 9/47/7 4/48/9 5/49/10
s 2
f 21/53/11 20/52/12 22/56/13
f 21/53/11 22/56/13 23/57/14
s off
f 9/47/15 7/54/16 8/58/17
f 13/39/18 14/38/19 15/40/20
f 1/34/21 9/33/22 11/36/23 10/37/24
s 3
f 9/100/25 8/101/26 12/102/27 11/103/28
s off
f 8/59/29 1/60/30 10/61/31 12/62/32
f 10/37/33 11/36/34 14/38/35 13/39/36
s 3
f 11/103/28 12/102/27 15/104/37 14/105/38
s off
f 12/62/39 10/61/40 13/63/41 15/64/42
s 4
f 9/47/43 5/49/44 16/50/45 17/51/46
s 5
f 5/109/47 6/108/48 18/110/49 16/111/50
s 6
f 6/14/51 7/10/52 19/15/53 18/16/54
s 7
f 7/54/55 9/47/56 17/51/57 19/55/58
s 4
f 17/51/46 16/50/45 20/52/59 21/53/60
s 5
f 16/111/50 18/110/49 22/112/61 20/113/62
s 6
f 18/16/54 19/15/53 23/17/63 22/18/64
s 7
f 19/55/58 17/51/57 21/53/65 23/57/66
s 8
f 9/1/67 2/2/68 24/3/69 25/4/70
s 9
f 2/65/71 3/66/72 26/67/73 24/68/74
s 10
f 3/46/75 9/47/76 25/45/77 26/44/78
s 8
f 25/4/70 24/3/69 27/5/79 28/6/80
s 9
f 24/68/74 26/67/73 29/69/81 27/70/82
s 10
f 26/44/78 25/45/77 28/41/83 29/43/84
s off
f 31/8/85 30/11/86 1/12/87 8/9/88
f 32/7/89 31/8/90 8/9/91 7/10/92
f 33/13/93 32/7/94 7/10/95 6/14/96
f 34/106/97 33/107/98 6/108/99 5/109/100
f 35/20/101 34/23/102 5/24/103 4/21/104
f 36/19/105 35/20/106 4/21/107 3/22/108
f 37/25/109 36/19/110 3/22/111 2/26/112
f 30/114/113 37/115/114 2/116/115 1/117/116
s 11
f 46/71/117 47/72/118 48/73/119
f 49/79/120 47/72/118 50/84/121
f 51/76/122 47/72/118 52/74/123
f 50/84/121 47/72/118 53/80/124
f 47/72/118 54/75/125 48/73/119
f 52/74/123 47/72/118 46/71/117
f 53/80/124 47/72/118 51/76/122
f 49/79/120 54/75/125 47/72/118
s off
f 33/86/126 34/82/127 38/77/128 39/87/129
f 30/92/130 31/90/131 40/91/132 41/93/133
f 35/83/134 36/85/135 42/81/136 43/78/137
f 37/94/138 30/95/139 41/96/140 44/97/141
f 32/88/142 33/86/143 39/87/144 45/89/145
f 34/82/146 35/83/147 43/78/148 38/77/149
f 36/98/150 37/94/151 44/97/152 42/99/153
f 31/90/154 32/88/155 45/89/156 40/91/157
f 39/118/158 38/119/159 46/120/160 48/121/161
f 41/27/162 40/28/163 49/29/164 50/30/165
f 43/78/166 42/81/167 51/76/168 52/74/169
f 44/124/170 41/125/171 50/126/172 53/127/173
f 45/122/174 39/118/175 48/121/176 54/123/177
f 38/77/178 43/78/179 52/74/180 46/71/181
f 42/128/182 44/124/183 53/127/184 51/129/185
f 40/28/186 45/31/187 54/32/188 49/29/189
